# xmcd
# 
# Track frame offsets:
#     150
#     20485
#     32620
#     51715
#     66302
#     81625
#     95692
#     108972
#     126542
#     142517
#     177302
#     195997
#     206467
#     219575
#     231382
#     244262
#     255790
#     272022
# 
# Disc length: 3815
# 
# Revision: 13
# Processed by: cddbd v1.5.2PL0 Copyright (c) Steve Scherf et al.
# Submitted via: fre:ac v1.0.31
# 
DISCID=090ee512
DTITLE=Slim Dusty - Heritage Album
DYEAR=1988
DGENRE=Country
TTITLE0=We've Done Us Proud
TTITLE1=Ghosts Of The Golden Mile
TTITLE2=Grandfather Johnson
TTITLE3=Tonight The Woolshed Swings
TTITLE4=Namatjira
TTITLE5=Clancy Of The Overflow
TTITLE6=Game As Ned Kelly
TTITLE7=The Brass Well
TTITLE8=King Bundawaal
TTITLE9=The Man From Snowy River
TTITLE10=The Man From Iron Bark
TTITLE11=Middleton's Rouseabout
TTITLE12=Old Time Country Halls
TTITLE13=The Isa Rodeo
TTITLE14=Every Little Bit Of Australia
TTITLE15=Wagon Trains North
TTITLE16=Banjo's Man
TTITLE17=Waltzing Matilda
EXTD=
EXTT0=
EXTT1=
EXTT2=
EXTT3=
EXTT4=
EXTT5=
EXTT6=
EXTT7=
EXTT8=
EXTT9=
EXTT10=
EXTT11=
EXTT12=
EXTT13=
EXTT14=
EXTT15=
EXTT16=
EXTT17=
PLAYORDER=
